<?xml version="1.0" standalone="no"?>
<!DOCTYPE svg PUBLIC "-//W3C//DTD SVG 20010904//EN"
 "http://www.w3.org/TR/2001/REC-SVG-20010904/DTD/svg10.dtd">
<svg version="1.0" xmlns="http://www.w3.org/2000/svg"
 width="800.000000pt" height="800.000000pt" viewBox="0 0 800.000000 800.000000"
 preserveAspectRatio="xMidYMid meet">
<metadata>
Created by potrace 1.14, written by Peter Selinger 2001-2017
</metadata>
<g transform="translate(0.000000,800.000000) scale(0.100000,-0.100000)"
fill="#000000" stroke="none">
<path d="M0 4056 c0 -1861 3 -3391 6 -3400 5 -12 9 -13 19 -3 7 7 10 16 7 21
-3 5 3 6 14 2 10 -4 15 -4 12 0 -4 3 4 16 17 29 14 12 21 26 17 30 -4 5 1 5
10 2 10 -3 17 -3 17 1 -3 18 2 32 12 32 5 0 7 -6 3 -12 -4 -8 -3 -10 2 -5 5 5
10 13 10 18 1 5 2 14 3 19 0 6 6 9 13 8 7 -2 12 5 13 14 0 9 9 24 20 33 11 9
14 14 8 10 -9 -4 -11 -1 -7 10 5 13 9 13 22 3 9 -7 13 -8 9 -2 -4 6 2 22 13
34 11 13 20 27 20 31 0 5 7 6 15 3 10 -4 15 0 15 16 0 11 4 19 8 16 5 -3 16 6
26 19 10 14 22 22 27 19 5 -3 6 3 2 12 -4 12 -3 15 5 10 8 -5 12 1 12 15 0 19
2 20 17 8 11 -10 14 -10 9 -1 -4 7 -2 12 6 12 9 0 9 3 -2 10 -13 8 -11 11 7
16 14 4 20 11 16 22 -5 11 -3 13 7 7 10 -6 12 -4 7 8 -4 12 -1 15 14 12 11 -2
17 0 14 6 -6 9 61 79 76 79 5 0 8 3 6 8 -1 4 2 8 8 9 5 1 13 11 17 23 5 13 12
18 20 14 8 -5 9 -2 5 9 -4 10 -2 16 6 14 7 -1 11 4 9 11 -1 8 2 11 8 7 5 -3
13 0 16 9 3 9 12 12 21 9 11 -4 14 -2 9 5 -4 7 -1 12 8 12 9 0 16 5 16 11 0 5
6 7 13 3 9 -6 9 -4 -1 8 -10 13 -10 16 0 15 7 0 22 1 33 2 17 1 18 3 5 11 -11
7 -12 10 -2 10 18 0 43 26 34 35 -4 5 3 5 16 2 17 -4 22 -2 19 8 -4 9 1 11 15
7 14 -3 19 -1 14 6 -4 7 -1 12 9 12 11 0 15 5 12 14 -4 10 1 13 20 11 15 -1
33 5 44 16 11 11 25 16 36 12 12 -5 15 -2 10 10 -3 9 -3 16 1 16 4 -1 10 0 15
1 19 6 33 5 39 -5 4 -5 8 0 8 11 0 23 36 40 44 20 3 -8 5 -7 5 1 1 7 8 10 18
6 10 -4 14 -2 10 4 -4 5 5 15 18 21 19 9 25 9 25 -1 0 -8 4 -7 10 3 6 9 10 11
10 3 0 -17 32 -4 48 19 11 15 17 16 28 7 11 -9 14 -8 14 2 0 9 3 10 8 4 7 -10
82 -14 82 -4 0 3 15 4 33 2 26 -3 29 -2 15 7 -10 6 -18 16 -18 23 0 9 2 9 8 1
9 -14 74 -14 84 1 5 6 8 5 8 -4 0 -11 3 -11 17 0 14 12 15 12 9 1 -7 -11 -4
-12 13 -3 14 8 21 8 21 1 0 -12 22 -9 32 5 5 6 8 6 8 -1 0 -11 28 -12 46 -2 5
4 16 3 24 -2 9 -5 19 -5 26 1 8 7 14 6 19 -1 5 -8 10 -8 20 0 9 8 15 8 20 0 4
-7 12 -7 26 0 14 8 19 7 19 -2 0 -9 3 -9 12 0 8 8 15 9 25 1 10 -9 13 -8 13 1
0 10 3 10 14 1 10 -8 16 -9 21 -1 4 6 13 7 23 2 20 -10 33 -10 49 1 6 4 14 3
18 -3 4 -6 12 -7 18 -3 17 10 47 11 47 1 0 -11 23 -6 32 7 5 6 8 6 8 -1 0 -11
28 -12 46 -2 5 4 16 3 24 -2 9 -5 19 -5 26 1 8 7 14 6 19 -1 5 -8 10 -8 20 0
9 8 15 8 20 0 4 -7 12 -7 26 0 14 8 19 7 19 -1 0 -8 4 -9 13 0 10 8 17 7 25
-1 9 -9 12 -9 12 1 0 10 3 11 14 2 10 -8 16 -9 21 -1 4 6 13 7 23 2 20 -10 33
-10 49 1 6 4 14 3 18 -3 4 -6 12 -7 18 -3 17 10 47 11 47 1 0 -11 23 -6 32 7
5 6 8 6 8 -1 0 -11 28 -12 46 -2 5 4 16 3 24 -2 9 -5 19 -5 26 1 8 7 14 6 19
-1 5 -8 10 -8 20 0 9 8 15 8 20 0 4 -7 12 -7 26 0 14 8 19 7 19 -1 0 -8 4 -9
13 0 10 8 17 7 25 -1 9 -9 12 -9 12 1 0 10 3 11 14 2 10 -8 16 -9 21 -1 4 6
13 7 23 2 20 -10 33 -10 49 1 6 4 14 3 18 -3 4 -6 12 -7 18 -3 17 10 47 11 47
1 0 -11 23 -6 32 7 5 6 8 6 8 -1 0 -11 28 -12 46 -2 5 4 16 3 24 -2 9 -5 19
-5 26 1 8 7 14 6 19 -1 5 -8 10 -8 20 0 9 8 15 8 20 0 4 -7 12 -7 26 0 14 8
19 7 19 -1 0 -8 4 -9 13 0 10 8 17 7 25 -1 9 -9 12 -9 12 1 0 10 3 11 14 2 10
-8 16 -9 21 -1 4 6 13 7 23 2 20 -10 33 -10 49 1 6 4 14 3 18 -3 4 -6 12 -7
18 -3 17 10 47 11 47 1 0 -11 23 -6 32 7 5 6 8 6 8 -2 0 -12 17 -12 38 0 7 5
12 3 12 -4 0 -9 3 -9 14 0 10 9 16 9 21 1 5 -8 11 -8 19 -1 7 6 16 8 20 4 12
-13 47 -10 42 3 -3 8 0 11 10 7 7 -3 14 -10 14 -17 0 -6 5 -4 10 4 9 13 10 13
10 0 0 -12 2 -12 9 -1 6 9 10 10 16 2 5 -9 10 -9 21 0 11 9 14 8 14 -2 0 -12
2 -12 9 0 6 9 10 10 16 2 5 -9 10 -9 21 0 11 9 14 8 14 -2 0 -11 2 -11 10 1 8
12 10 12 10 1 0 -11 3 -11 15 -1 12 10 15 10 15 -1 0 -12 2 -12 9 0 5 8 11 9
15 3 7 -11 24 -11 44 1 7 5 12 3 12 -5 0 -9 3 -9 10 2 7 10 12 11 18 4 8 -11
67 -13 78 -1 12 12 26 8 18 -5 -5 -9 -2 -9 9 1 14 11 17 11 18 0 0 -8 4 -5 9
6 7 17 9 17 9 3 1 -11 6 -15 16 -12 8 4 12 10 9 15 -3 5 0 9 5 9 6 0 11 -8 11
-17 1 -17 2 -17 13 -1 12 15 14 15 23 0 9 -13 12 -13 19 -2 6 9 4 11 -5 5 -8
-5 -11 -4 -6 3 4 6 13 9 21 6 8 -4 12 -11 8 -17 -3 -6 4 -3 16 6 25 17 55 12
44 -7 -4 -6 0 -5 9 2 10 8 30 11 47 9 18 -3 29 -1 25 4 -3 5 -10 6 -16 3 -6
-4 -8 -2 -5 4 8 12 25 11 46 -2 10 -6 12 -5 7 3 -6 9 9 11 63 8 49 -3 71 -1
71 7 0 6 5 4 10 -4 9 -13 11 -13 20 0 5 8 10 10 10 5 0 -16 75 -12 96 5 10 8
15 10 11 3 -4 -6 -3 -15 3 -18 6 -4 10 -3 9 2 -1 4 -1 15 0 23 1 13 2 13 11 0
7 -11 10 -12 10 -2 0 9 7 11 21 7 16 -6 20 -4 13 6 -6 12 -5 12 9 0 14 -11 20
-11 34 0 11 10 14 10 9 2 -9 -16 6 -17 22 -1 9 9 12 9 12 -1 0 -7 5 -9 10 -6
6 4 8 10 5 15 -8 12 26 22 40 10 6 -5 15 -7 19 -3 12 12 40 12 48 0 6 -9 8 -9
8 1 0 7 5 10 11 6 8 -4 8 -1 1 12 -9 17 -6 19 28 20 21 0 37 -4 34 -8 -3 -4 0
-8 5 -8 6 0 11 8 11 18 0 12 3 13 8 5 6 -10 12 -10 28 2 19 15 19 15 -1 8 -11
-3 -17 -3 -13 1 9 11 41 15 53 6 10 -7 57 13 56 24 -2 15 0 16 18 7 15 -8 20
-7 25 5 3 8 10 13 15 10 5 -4 16 0 24 8 10 10 18 11 24 5 11 -11 53 8 53 23 0
4 7 4 17 1 11 -5 14 -3 8 6 -6 10 -3 11 14 2 12 -7 21 -8 20 -4 -4 22 3 31 21
26 11 -3 20 0 20 6 0 6 6 11 14 11 8 0 17 6 19 13 4 9 8 8 16 -3 9 -13 11 -12
11 3 0 10 5 15 10 12 6 -3 10 -1 10 4 0 6 11 11 24 11 14 0 28 5 32 12 5 7 3
8 -7 3 -12 -8 -12 -6 0 8 15 18 26 23 16 7 -3 -5 -4 -10 -2 -10 9 0 67 32 72
40 3 5 13 6 22 3 13 -5 15 -2 10 11 -4 10 -3 15 3 11 6 -3 10 0 10 7 0 10 2
10 9 -1 6 -9 11 -10 15 -2 4 6 11 9 16 6 5 -3 7 3 5 13 -2 11 3 19 10 19 8 0
12 -5 9 -11 -3 -6 1 -3 9 6 10 13 17 14 25 6 9 -9 10 -6 7 11 -2 12 0 19 5 16
4 -3 15 1 23 9 8 8 17 12 21 9 3 -4 6 -1 6 7 0 10 3 10 18 -1 9 -7 14 -10 11
-6 -10 12 49 70 62 61 9 -5 10 -2 6 9 -3 9 -3 16 1 16 18 -3 56 3 45 7 -7 3
-2 14 14 30 13 13 29 22 34 18 5 -3 8 0 7 6 -2 7 13 18 32 25 19 6 34 15 33
18 -2 4 0 6 3 5 3 -2 11 7 17 19 7 12 17 22 22 22 6 1 10 7 10 14 0 6 6 13 13
13 25 3 27 5 12 14 -12 8 -11 10 8 10 12 0 22 5 22 10 0 6 9 20 20 32 11 12
20 19 20 15 0 -4 11 3 25 15 14 12 25 28 25 35 0 12 13 17 33 14 5 -1 6 3 2 9
-4 6 6 23 21 38 15 15 24 22 21 15 -4 -6 -3 -15 3 -18 6 -4 10 -3 9 2 -4 23 2
43 14 41 7 -2 11 5 9 16 -3 14 1 17 12 13 10 -4 16 -1 16 8 0 8 5 15 10 15 6
0 10 7 10 15 0 8 5 15 10 15 6 0 10 5 10 11 0 5 -5 7 -12 3 -7 -5 -8 -3 -4 5
5 7 15 10 23 7 10 -4 13 -2 10 7 -3 7 4 19 15 26 11 7 17 19 14 27 -5 12 -2
12 15 3 15 -8 19 -8 15 0 -4 6 -1 11 6 11 8 0 9 3 3 8 -12 8 -19 36 -8 29 10
-6 34 19 26 27 -6 6 12 10 30 7 12 -2 8 17 -5 22 -10 4 -10 6 0 6 6 1 12 7 12
15 0 8 7 17 16 20 9 3 12 11 8 18 -5 8 -2 9 11 5 14 -6 17 -3 13 17 -3 15 0
27 8 30 8 3 14 12 14 21 0 8 5 15 10 15 6 0 10 6 10 14 0 7 11 25 25 40 13 14
22 32 19 40 -3 8 0 17 7 22 8 5 10 3 5 -7 -4 -8 0 -5 8 5 18 22 21 40 6 31
-17 -10 -11 1 14 28 13 14 27 23 30 19 4 -3 4 1 0 11 -3 9 -11 14 -18 10 -6
-3 -5 0 2 8 7 8 18 14 24 14 6 0 12 8 14 18 1 9 -2 17 -7 17 -6 0 -7 5 -4 10
4 6 10 8 14 5 5 -2 13 7 19 20 7 15 8 25 2 25 -6 0 -10 5 -10 11 0 5 5 7 12 3
8 -5 9 -2 5 9 -7 20 8 23 17 5 3 -7 3 -2 0 11 -4 13 -2 21 3 18 5 -3 7 7 5 25
-3 20 -1 29 6 24 6 -3 13 -2 17 4 3 5 1 10 -5 10 -6 0 -8 5 -5 10 4 6 10 8 14
5 5 -2 8 8 7 23 -1 18 4 26 13 24 8 -2 11 3 8 12 -4 9 -2 18 3 21 6 4 10 12
10 18 0 7 -4 6 -10 -3 -7 -11 -8 -7 -6 15 2 17 9 29 15 27 6 -1 12 1 12 5 6
37 5 60 -4 71 -6 7 -6 12 -1 11 21 -4 35 2 29 11 -3 5 2 10 12 10 11 0 14 3 7
8 -15 10 -27 45 -12 36 7 -5 9 0 6 13 -3 11 3 31 13 44 12 16 15 28 8 41 -6
11 -5 19 2 24 8 4 7 9 -2 15 -10 6 -10 9 -2 9 7 0 10 6 7 14 -3 7 2 16 11 20
9 3 13 10 10 16 -3 5 0 10 7 10 9 0 9 3 -2 10 -13 9 -13 10 0 10 13 0 13 1 0
11 -9 6 -11 12 -5 15 10 4 10 86 0 111 -2 7 -1 12 3 12 19 -3 23 2 12 16 -7 9
-10 18 -6 22 3 3 6 1 6 -5 0 -7 4 -12 10 -12 5 0 6 7 3 17 -5 12 -3 14 8 8 11
-7 12 -6 2 6 -10 12 -10 18 -1 27 7 7 8 12 2 12 -6 0 -11 7 -11 15 0 8 4 15 8
15 5 0 4 11 -1 25 -7 18 -6 25 3 25 8 0 7 4 -3 10 -8 5 -10 10 -4 10 6 0 11 7
11 15 0 8 -3 15 -7 15 -8 0 -3 56 5 71 4 5 1 9 -5 9 -8 0 -8 6 0 20 8 14 8 20
0 20 -8 0 -8 6 0 20 6 12 7 20 1 20 -10 0 -10 19 1 35 4 6 3 17 -2 25 -4 7 -4
24 1 37 6 15 5 23 -2 23 -8 0 -7 5 1 15 10 12 10 15 0 15 -10 0 -10 3 0 15 8
9 8 15 2 15 -7 0 -8 10 -2 30 5 19 5 28 -1 25 -5 -4 -9 4 -9 15 0 15 -5 20
-14 17 -11 -5 -13 0 -6 23 5 18 4 32 -3 39 -6 6 -7 11 -1 11 5 0 8 17 6 38 -2
20 -3 47 -3 60 1 12 -4 22 -9 22 -6 0 -10 7 -10 16 0 9 -5 12 -12 8 -7 -5 -8
-3 -3 7 12 19 14 49 3 55 -4 3 -4 13 2 24 7 13 5 21 -8 31 -16 13 -16 12 -2
-6 14 -19 14 -19 -3 -6 -14 11 -15 16 -5 29 11 13 11 14 -1 8 -10 -7 -12 0 -8
33 2 22 0 41 -5 41 -5 0 -7 4 -4 9 4 5 1 11 -6 13 -6 2 -12 22 -14 44 -3 55
-2 54 -21 54 -15 0 -16 2 -3 10 8 5 10 10 4 10 -6 0 -11 7 -11 15 0 8 4 15 9
15 8 0 -1 14 -28 43 -7 8 -8 20 -3 34 7 18 5 21 -9 16 -15 -6 -15 -5 -3 11 8
9 10 16 5 15 -23 -4 -30 4 -29 36 1 28 -1 32 -12 23 -11 -9 -12 -7 -7 7 5 12
4 16 -3 12 -7 -5 -9 0 -6 13 3 12 0 20 -8 20 -7 0 -9 3 -6 7 4 3 -1 15 -10 26
-10 11 -12 17 -5 13 6 -4 12 -2 12 3 0 6 -4 11 -10 11 -5 0 -6 7 -3 17 4 11 3
14 -5 9 -8 -5 -14 3 -18 23 -4 16 -15 38 -25 47 -14 13 -16 20 -8 31 11 13 1
18 -24 14 -5 -1 -6 3 -3 7 3 5 -3 20 -14 32 -23 26 -26 36 -7 24 7 -5 5 -2 -5
8 -10 9 -18 21 -18 28 0 6 -5 8 -12 4 -10 -6 -10 -4 0 8 10 13 7 21 -20 48
-18 18 -27 30 -20 26 6 -4 12 -4 12 -1 0 9 -44 51 -61 58 -8 3 -9 6 -2 6 6 1
9 10 6 22 -3 12 -11 18 -19 15 -8 -3 -13 -2 -13 2 3 21 -3 32 -17 32 -8 0 -12
5 -9 10 3 6 2 10 -4 10 -6 0 -8 6 -5 13 5 14 -30 57 -47 57 -6 0 -8 7 -5 16 3
8 2 12 -4 9 -5 -3 -14 5 -21 17 -7 13 -20 29 -31 36 -10 7 -23 23 -29 35 -8
16 -3 14 16 -8 l27 -30 -22 33 c-13 19 -28 31 -35 28 -9 -3 -12 2 -10 14 2 11
1 19 -3 19 -21 -3 -32 3 -32 17 0 11 -5 14 -17 10 -10 -4 -14 -4 -10 0 4 4 -2
13 -13 21 -11 8 -20 21 -20 29 0 8 -4 13 -9 9 -5 -3 -12 4 -16 15 -3 11 -12
19 -18 17 -7 -1 -11 6 -11 15 1 10 -4 14 -12 11 -8 -3 -14 1 -14 10 0 9 -9 19
-20 22 -11 4 -17 11 -14 17 5 7 1 9 -9 5 -12 -4 -17 -1 -17 12 0 10 -11 23
-25 29 -14 6 -25 18 -25 26 0 8 -5 18 -12 22 -6 4 -8 3 -5 -2 3 -5 -3 -10 -13
-10 -13 0 -16 4 -10 12 12 13 -32 40 -49 30 -7 -5 -9 -1 -5 8 4 11 0 16 -11
16 -9 0 -13 5 -10 10 3 6 1 11 -4 11 -6 1 -15 2 -20 3 -5 0 -13 5 -18 10 -5 5
-3 6 4 2 9 -5 11 -2 7 8 -3 9 -9 15 -12 14 -23 -3 -42 3 -37 12 4 6 -5 10 -19
10 -14 0 -26 5 -26 11 0 5 6 7 13 3 9 -5 9 -4 0 6 -7 8 -23 15 -35 17 -12 2
-27 8 -33 14 -7 7 -4 8 10 4 15 -5 17 -4 6 3 -8 6 -21 8 -29 4 -11 -4 -14 0
-10 16 5 18 3 20 -19 11 -18 -6 -22 -6 -17 3 5 8 2 9 -12 4 -10 -4 -16 -4 -12
-1 9 9 -34 50 -52 50 -8 0 -25 10 -38 22 -24 25 -38 30 -26 12 4 -7 1 -10 -7
-7 -8 3 -13 11 -12 17 3 9 -15 13 -43 10 -3 0 -14 10 -25 22 -16 19 -21 20
-36 8 -11 -10 -14 -10 -9 -1 4 7 1 15 -8 18 -9 3 -13 11 -10 16 4 6 -1 8 -14
4 -14 -5 -24 -1 -30 10 -5 9 -21 17 -36 17 -14 0 -26 5 -26 11 0 7 -10 12 -22
13 -31 3 -78 24 -78 35 0 6 -7 5 -15 -2 -12 -10 -16 -9 -21 3 -3 9 -12 18 -20
21 -9 3 -12 1 -9 -4 3 -6 1 -10 -4 -10 -6 0 -11 8 -12 18 0 9 -3 12 -5 6 -2
-6 -18 -8 -35 -6 -22 3 -27 7 -18 13 10 6 5 9 -14 9 -18 0 -26 4 -21 11 4 7
-1 7 -16 -1 -22 -12 -35 -7 -35 13 0 5 -10 11 -22 12 -13 1 -23 -3 -23 -9 0
-7 -3 -7 -8 1 -4 6 -20 10 -35 9 -23 -3 -25 -1 -15 12 12 13 10 14 -11 3 -15
-8 -21 -9 -17 -2 4 6 0 11 -11 12 -10 1 -31 2 -48 3 -16 0 -43 8 -60 17 -16 8
-41 14 -55 12 -36 -5 -41 -5 -78 1 -19 3 -30 1 -27 -4 3 -6 -1 -7 -9 -4 -9 3
-14 10 -11 14 3 5 0 12 -6 16 -8 4 -9 3 -5 -4 4 -7 1 -12 -9 -12 -10 0 -13 5
-9 13 5 7 0 6 -11 -3 -15 -12 -17 -12 -10 -1 6 11 3 13 -13 9 -12 -4 -25 -2
-28 3 -4 6 -11 6 -18 0 -7 -6 -16 -8 -19 -5 -4 4 -33 7 -67 7 -56 1 -76 9 -47
20 6 3 -979 6 -2190 6 l-2203 1 0 -3384z m4825 3296 c-3 -3 -11 0 -18 7 -9 10
-8 11 6 5 10 -3 15 -9 12 -12z m1746 -1089 c13 -16 12 -17 -3 -4 -10 7 -18 15
-18 17 0 8 8 3 21 -13z m-641 -4057 c0 -2 -7 -7 -16 -10 -8 -3 -12 -2 -9 4 6
10 25 14 25 6z m-580 -300 c0 -2 -8 -10 -17 -17 -16 -13 -17 -12 -4 4 13 16
21 21 21 13z"/>
</g>
</svg>
